<?xml version="1.0" encoding="utf-8"?>
<!-- Generator: Adobe Illustrator 18.0.0, SVG Export Plug-In . SVG Version: 6.00 Build 0)  -->
<!DOCTYPE svg PUBLIC "-//W3C//DTD SVG 1.1//EN" "http://www.w3.org/Graphics/SVG/1.1/DTD/svg11.dtd">
<svg version="1.1" id="Layer_1" xmlns="http://www.w3.org/2000/svg" xmlns:xlink="http://www.w3.org/1999/xlink" x="0px" y="0px"
	 viewBox="0 0 250 107.3" enable-background="new 0 0 250 107.3" xml:space="preserve">
<g>
	<g>
		<path fill-rule="evenodd" clip-rule="evenodd" fill="#FFFFFF" d="M171.1,0c-0.8,11-4.8,22.5-16.1,24.6c-7.8,1.4-16-0.5-24.6,0.5
			c-0.1,2.4,2.3,2.4,2.8,4.3c-1.3,0.7-2.9,1.2-4.7,1.4c-8.6-12-21.8-22-42.5-20.3c11.7,5.6,22.7,12,29.3,22.7
			c-25.4,6.5-46.4,20-75.6,24.1c-3.5-11.8-24-30.1-38.8-34.5c1.9,4.4,7.8,4.8,8.5,10.4c2.8,1,3.2,4.4,5.7,5.7
			c1.5,6.6,6,10.1,6.6,17.5c0.4,0.3,0.8,0.5,1.4,0.5c0.7,4.2,0.7,4.8,0,9c-4.3,6.5-7.3,14.5-11.8,20.8C6.8,88.9,5.8,94.8,0,95.9
			c23.4,1,39.2-29.7,39.2-30.2c25.3,1,39.2,13.4,60.5,18.4c-6.5,10.2-19.5,13.9-32.1,18c18.2,4.9,36.6-3.3,46.3-12.8
			c15.4,3.9,30.7,5.8,49.6,4.3c-1,3.3-5.4,7.2-4.7,13.7c10.2,0.9,14.5-8.1,19.4-14.2c32.9,0.3,54.4-10.8,71.4-26.5
			c-1.7-1.9-4.3-2.9-7.1-3.8c2.1-1.9,4.8-3.1,7.6-4.3c-15.3-17-33.7-30.9-65.2-31.7C179.3,18.8,177.6,7,171.1,0z"/>
	</g>
</g>
</svg>
